<svg width="35" height="28" viewBox="0 0 35 28" fill="none" xmlns="http://www.w3.org/2000/svg">
<path fill-rule="evenodd" clip-rule="evenodd" d="M27.5375 7.7089H23.5486C21.6072 5.13361 18.5031 3.46473 15.0088 3.46473C9.13257 3.46473 4.36219 8.18303 4.36219 13.994C4.36219 19.8055 9.13257 24.5233 15.0088 24.5233C18.5031 24.5233 21.6072 22.8544 23.5486 20.2796H27.5375C25.2163 24.7924 20.475 27.8869 15.0088 27.8869C7.25564 27.8869 0.961426 21.662 0.961426 13.994C0.961426 6.32647 7.25564 0.101562 15.0088 0.101562C20.475 0.101562 25.2163 3.19614 27.5375 7.7089V7.7089ZM18.3517 14.6144C18.0569 16.1751 16.6713 17.3576 15.0088 17.3576C13.1314 17.3576 11.6076 15.8506 11.6076 13.994C11.6076 12.1379 13.1314 10.6308 15.0088 10.6308C16.6713 10.6308 18.0569 11.8134 18.3517 13.3741H35.0001V14.6144H18.3517Z" fill="white"/>
</svg>
